<svg width="366" height="407" viewBox="0 0 366 407" fill="none" xmlns="http://www.w3.org/2000/svg">
<g filter="url(#filter0_di_32092_8778)">
<path d="M59.7544 368.999C60.3067 368.999 60.7544 368.552 60.7544 367.999V226.521L142.632 368.499C142.809 368.805 143.134 368.995 143.487 368.999C143.841 369.003 144.17 368.82 144.353 368.518L165.95 332.929C166.139 332.618 166.144 332.229 165.963 331.913L25.8676 87.5268C25.6422 87.1337 25.1806 86.9412 24.7427 87.0578C24.3048 87.1745 24 87.571 24 88.0242V367.999C24 368.552 24.4477 368.999 25 368.999H59.7544Z" stroke="white" stroke-width="2" stroke-linejoin="round" shape-rendering="crispEdges"/>
</g>
<g filter="url(#filter1_di_32092_8778)">
<path d="M305.244 367.999C305.244 368.552 305.691 368.999 306.244 368.999H340.998C341.55 368.999 341.998 368.552 341.998 367.999V88.0242C341.998 87.5705 341.693 87.1736 341.254 87.0575C340.816 86.9414 340.354 87.135 340.129 87.5293L242.701 258.604C242.527 258.91 242.527 259.284 242.7 259.591L263.232 295.891C263.408 296.203 263.738 296.397 264.097 296.399C264.455 296.401 264.787 296.211 264.967 295.901L305.244 226.501V367.999Z" stroke="white" stroke-width="2" stroke-linejoin="round" shape-rendering="crispEdges"/>
</g>
<g filter="url(#filter2_di_32092_8778)">
<path d="M244.458 330.523C244.617 330.222 244.611 329.86 244.443 329.563L204.789 259.759L264.974 154.394C265.149 154.087 265.149 153.709 264.973 153.401L183.153 10.5031C182.974 10.1912 182.642 9.99914 182.282 10C181.923 10.0009 181.592 10.1945 181.415 10.5073L100.505 153.406C100.331 153.712 100.332 154.088 100.506 154.394L222.686 368.496C222.867 368.813 223.206 369.006 223.571 369C223.936 368.994 224.268 368.789 224.439 368.467L244.458 330.523ZM220.381 153.895L182.64 220.768L144.649 153.891L182.29 85.5349L220.381 153.895Z" stroke="white" stroke-width="2" stroke-linejoin="round" shape-rendering="crispEdges"/>
</g>
<defs>
<filter id="filter0_di_32092_8778" x="0" y="77.0239" width="190.094" height="329.976" filterUnits="userSpaceOnUse" color-interpolation-filters="sRGB">
<feFlood flood-opacity="0" result="BackgroundImageFix"/>
<feColorMatrix in="SourceAlpha" type="matrix" values="0 0 0 0 0 0 0 0 0 0 0 0 0 0 0 0 0 0 127 0" result="hardAlpha"/>
<feOffset dy="14"/>
<feGaussianBlur stdDeviation="11.5"/>
<feComposite in2="hardAlpha" operator="out"/>
<feColorMatrix type="matrix" values="0 0 0 0 0 0 0 0 0 0.862745 0 0 0 0 1 0 0 0 1 0"/>
<feBlend mode="normal" in2="BackgroundImageFix" result="effect1_dropShadow_32092_8778"/>
<feBlend mode="normal" in="SourceGraphic" in2="effect1_dropShadow_32092_8778" result="shape"/>
<feColorMatrix in="SourceAlpha" type="matrix" values="0 0 0 0 0 0 0 0 0 0 0 0 0 0 0 0 0 0 127 0" result="hardAlpha"/>
<feOffset dy="8"/>
<feGaussianBlur stdDeviation="25"/>
<feComposite in2="hardAlpha" operator="arithmetic" k2="-1" k3="1"/>
<feColorMatrix type="matrix" values="0 0 0 0 0 0 0 0 0 0.862745 0 0 0 0 1 0 0 0 0.8 0"/>
<feBlend mode="normal" in2="shape" result="effect2_innerShadow_32092_8778"/>
</filter>
<filter id="filter1_di_32092_8778" x="218.57" y="77.0239" width="147.43" height="329.976" filterUnits="userSpaceOnUse" color-interpolation-filters="sRGB">
<feFlood flood-opacity="0" result="BackgroundImageFix"/>
<feColorMatrix in="SourceAlpha" type="matrix" values="0 0 0 0 0 0 0 0 0 0 0 0 0 0 0 0 0 0 127 0" result="hardAlpha"/>
<feOffset dy="14"/>
<feGaussianBlur stdDeviation="11.5"/>
<feComposite in2="hardAlpha" operator="out"/>
<feColorMatrix type="matrix" values="0 0 0 0 0 0 0 0 0 0.862745 0 0 0 0 1 0 0 0 1 0"/>
<feBlend mode="normal" in2="BackgroundImageFix" result="effect1_dropShadow_32092_8778"/>
<feBlend mode="normal" in="SourceGraphic" in2="effect1_dropShadow_32092_8778" result="shape"/>
<feColorMatrix in="SourceAlpha" type="matrix" values="0 0 0 0 0 0 0 0 0 0 0 0 0 0 0 0 0 0 127 0" result="hardAlpha"/>
<feOffset dy="8"/>
<feGaussianBlur stdDeviation="25"/>
<feComposite in2="hardAlpha" operator="arithmetic" k2="-1" k3="1"/>
<feColorMatrix type="matrix" values="0 0 0 0 0 0 0 0 0 0.862745 0 0 0 0 1 0 0 0 0.8 0"/>
<feBlend mode="normal" in2="shape" result="effect2_innerShadow_32092_8778"/>
</filter>
<filter id="filter2_di_32092_8778" x="76.375" y="0" width="212.727" height="407" filterUnits="userSpaceOnUse" color-interpolation-filters="sRGB">
<feFlood flood-opacity="0" result="BackgroundImageFix"/>
<feColorMatrix in="SourceAlpha" type="matrix" values="0 0 0 0 0 0 0 0 0 0 0 0 0 0 0 0 0 0 127 0" result="hardAlpha"/>
<feOffset dy="14"/>
<feGaussianBlur stdDeviation="11.5"/>
<feComposite in2="hardAlpha" operator="out"/>
<feColorMatrix type="matrix" values="0 0 0 0 0 0 0 0 0 0.862745 0 0 0 0 1 0 0 0 1 0"/>
<feBlend mode="normal" in2="BackgroundImageFix" result="effect1_dropShadow_32092_8778"/>
<feBlend mode="normal" in="SourceGraphic" in2="effect1_dropShadow_32092_8778" result="shape"/>
<feColorMatrix in="SourceAlpha" type="matrix" values="0 0 0 0 0 0 0 0 0 0 0 0 0 0 0 0 0 0 127 0" result="hardAlpha"/>
<feOffset dy="8"/>
<feGaussianBlur stdDeviation="25"/>
<feComposite in2="hardAlpha" operator="arithmetic" k2="-1" k3="1"/>
<feColorMatrix type="matrix" values="0 0 0 0 0 0 0 0 0 0.862745 0 0 0 0 1 0 0 0 0.8 0"/>
<feBlend mode="normal" in2="shape" result="effect2_innerShadow_32092_8778"/>
</filter>
</defs>
</svg>
